<?xml version="1.0" encoding="UTF-8"?>
<svg id="Layer_1" data-name="Layer 1" xmlns="http://www.w3.org/2000/svg" width="152" height="39" viewBox="0 0 152 39">
  <defs>
    <style>
      .cls-1 {
        fill: #fff;
      }
    </style>
  </defs>
  <g>
    <path class="cls-1" d="M107.422,5.713v27.189h-5.229v-2.44l-1.651,1.573c-6.104,3.638-12.799-.682-13.17-7.579-.444-8.248,7.448-13.994,14.299-8.286V5.975c0-.018.243-.261.261-.261h5.49ZM97.458,19.001c-5.971.195-5.808,9.835.812,9.194,3.335-.323,4.552-3.593,3.536-6.494-.655-1.87-2.437-2.761-4.348-2.699Z"/>
    <path class="cls-1" d="M54.961,21.574c2.309-2.188,4.173-4.828,6.361-7.146h6.884l-7.296,8.597,7.121,9.877h-7.059l-6.013-8.714v8.714h-5.926V5.975c0-.018.243-.261.261-.261h5.403c.018,0,.261.243.261.261v15.599Z"/>
    <path class="cls-1" d="M85.81,25.582h-13.072c.864,3.683,5.097,4.375,7.678,1.836.259-.254.272-.667.591-.622.573.361,3.994,2.599,3.917,3.032-.092.52-2.746,2.292-3.356,2.581-5.372,2.547-12.736.009-14.283-5.993-1.705-6.61,2.781-12.337,9.539-12.518,6.808-.183,9.697,5.63,8.985,11.685ZM80.059,21.574c-.07-4.716-7.001-4.419-7.32,0h7.32Z"/>
    <path class="cls-1" d="M40.496,32.902v-11.067c0-.08-.405-1.272-.487-1.43-.928-1.793-3.928-1.612-4.991-.04-.356.527-.796,2.089-.796,2.69v9.847h-5.751V14.689c0-.018.243-.261.261-.261h5.316v2.44l1.392-1.484,1.784-1.005c12.114-2.669,8.479,11.236,9.149,18.261-.027.092-.158.261-.212.261h-5.664Z"/>
    <path class="cls-1" d="M6.335,27.325h10.806v5.577H.235V5.713h5.839c.018,0,.261.243.261.261v21.35Z"/>
    <path class="cls-1" d="M25.507,32.902h-5.751V14.428h5.49c.018,0,.261.243.261.261v18.213Z"/>
    <path class="cls-1" d="M21.977,5.405c4.696-.742,5.36,6.652.636,6.738-4.137.075-4.523-6.124-.636-6.738Z"/>
  </g>
  <path class="cls-1" d="M148.276.114h-31.794c-1.927,0-3.489,1.562-3.489,3.489v31.794c0,1.927,1.562,3.489,3.489,3.489h31.794c1.927,0,3.489-1.562,3.489-3.489V3.603c0-1.927-1.562-3.489-3.489-3.489ZM124.328,32.728h-5.403V14.602h5.403v18.126ZM122.282,11.945c-4.465.76-5.273-5.699-1.312-6.364,4.506-.757,5.219,5.699,1.312,6.364ZM145.765,32.728h-5.577c-.092-2.868.128-5.768-.008-8.635-.073-1.545-.04-4.059-1.664-4.768-1.683-.735-3.746-.151-4.462,1.604-.149.365-.488,1.797-.488,2.126v9.673h-5.403V14.602h5.229v2.44c.503-.001.65-.749,1.04-1.139,2.842-2.839,9.124-2.26,10.546,1.84,1.315,4.887.995,15.321.788,14.985Z"/>
</svg>