<?xml version="1.0" encoding="UTF-8"?>
<svg id="Layer_1" data-name="Layer 1" xmlns="http://www.w3.org/2000/svg" width="16" height="16" viewBox="0 0 16 16">
  <defs>
    <style>
      .cls-1 {
        fill: #fff;
      }
    </style>
  </defs>
  <path class="cls-1" d="M10.527,9.922v-3.898c0-.248.947-1.48,1.148-1.756.021-.028.14-.176.071-.193-.732-.078-2.611,1.301-2.771,1.914l-.063,4.033c-.4.258-.895.458-1.356.234-.07-.034-.326-.224-.326-.268V3.745c-1.898.589-3.36,2.406-4.072,4.21-.075.19-.211.478-.18.678.604-.684,1.077-1.675,2.065-1.834.108-.017.605-.028.605.084v3.799h-.989c.234.457.745.789,1.185,1.025.415.223,1.497.652,1.943.624.324-.021.835-.797,1.133-.979.179-.035.823.605,1.043.623.689.055,2.226-1.758,2.474-2.415-.175.022-.266.176-.436.256-.195.092-1.475.465-1.475.107Z"/>
  <path class="cls-1" d="M13.995,4.438c-.657-1.1-1.589-1.999-2.696-2.601-1.177-.641-2.525-.923-3.898-.814-1.17.092-2.255.46-3.222,1.095-.906.594-1.676,1.412-2.226,2.366-.557.965-.883,2.058-.943,3.161-.064,1.176.162,2.319.674,3.397.556,1.17,1.41,2.152,2.471,2.839.999.647,2.167,1.03,3.378,1.106.152.01.303.014.454.014,1.065,0,2.116-.237,3.064-.694,1.149-.553,2.128-1.426,2.831-2.524.378-.591.665-1.221.852-1.872.179-.622.268-1.266.264-1.913-.008-1.24-.355-2.471-1.005-3.559ZM13.606,11.603c-1.243,1.942-3.314,3.066-5.604,3.066-.148,0-.297-.005-.447-.014-2.445-.155-4.528-1.559-5.572-3.757-.947-1.993-.851-4.329.257-6.249,1.109-1.922,3-3.124,5.188-3.296,2.556-.201,4.964,1.046,6.284,3.256,1.322,2.213,1.282,4.828-.106,6.995Z"/>
</svg>