<?xml version="1.0" encoding="UTF-8"?>
<svg id="Layer_1" data-name="Layer 1" xmlns="http://www.w3.org/2000/svg" width="16" height="16" viewBox="0 0 16 16">
  <defs>
    <style>
      .cls-1 {
        fill: #f39910;
      }
    </style>
  </defs>
  <path class="cls-1" d="M13.227,8.656c-.606,1.459-1.397,3.709-2.406,4.981-.129.162-.812.906-.937.963-.595.273-1.189-.311-.999-.909.087-.274.729-.762.949-1.04,3.588-4.533-.651-11.091-6.414-9.525-.418.113-1.461.724-1.702.723-.712-.003-.974-.857-.421-1.29C3.684.692,12.784,1.507,12.784,1.507c1.426.098,2.349,1.222,2.201,2.64-.061.58-.718,1.955-.973,2.569-.258.623-.519,1.301-.785,1.94Z"/>
</svg>