<?xml version="1.0" encoding="UTF-8"?>
<svg id="Layer_1" data-name="Layer 1" xmlns="http://www.w3.org/2000/svg" width="16" height="16" viewBox="0 0 16 16">
  <defs>
    <style>
      .cls-1 {
        fill: #a5a6a8;
      }

      .cls-2 {
        fill: #cbccce;
      }

      .cls-3 {
        fill: #feffff;
      }
    </style>
  </defs>
  <path class="cls-3" d="M8.491,3.539c.743.357,1.443.814,2.169,1.21.236.177-.115.306-.257.394-.787.49-1.627.907-2.423,1.384l-2.766-1.584.027-.179,2.226-1.286V1.041L1.816,4.276l6.184,3.724,6.184-3.703-5.693-3.297v2.539Z"/>
  <path class="cls-1" d="M8,14.992l5.651-3.263-.025-.084-2.125-1.211c-.328.125-2.073,1.302-2.253,1.282-.039-.004-.083-.06-.093-.097l.011-3.166,2.585-1.51c.055-.058.262-.061.262.016v2.58l2.171,1.249v-6.491l-6.184,3.703v6.992Z"/>
  <path class="cls-2" d="M3.986,9.539v-2.58c0-.065.182-.083.234-.03l2.612,1.524.013,3.168c-.022.064-.122.117-.185.079l-2.163-1.267-2.149,1.276,5.638,3.291.013-.008h0v-6.992L1.816,4.276v6.512l2.171-1.249Z"/>
</svg>